# xmcd
#
# Track frame offsets:
#	150
#	12216
#	25767
#	38427
#	52280
#	67676
#	84879
#	98806
#	111604
#	125178
#	139111
#	153081
#	168710
#	184138
#	197783
#	211723
#	226756
#	240604
#
# Disc length: 3367 seconds
#
# Revision: 0
# Processed by: cddbd v1.5.1PL2 Copyright (c) Steve Scherf et al.
# Submitted via: dBpowerAMP V4.0
#
DISCID=ea0d2512
DTITLE=BONDE SERTANEJO - VOLUME 1
DYEAR=2006
DGENRE=FORRO
TTITLE0=BOBO
TTITLE1=ALGUEM
TTITLE2=DESCULPE MAIS EU VOU CHORAR
TTITLE3=POR TE AMAR DEMAIS
TTITLE4=FOI TUDO CULPA DO AMOR
TTITLE5=EU JURO
TTITLE6=MINHA ESTRELA PERDIDA
TTITLE7=AGITO DOS SOLTEIROS
TTITLE8=DEPOIS DA MEIA NOITE
TTITLE9=AMOR DIVIDIDO
TTITLE10=DEVE SER AMOR
TTITLE11=PROBLEMA É SEU
TTITLE12=MEU ANJO AZUL
TTITLE13=NAO SEI MAIS DORMIR SOZINHO
TTITLE14=FAZ MAIS FAZ
TTITLE15=VEM FAZER AMOR COMIGO
TTITLE16=QUERO COLO
TTITLE17=NA BUNDINHA
EXTD=
EXTT0=
EXTT1=
EXTT2=
EXTT3=
EXTT4=
EXTT5=
EXTT6=
EXTT7=
EXTT8=
EXTT9=
EXTT10=
EXTT11=
EXTT12=
EXTT13=
EXTT14=
EXTT15=
EXTT16=
EXTT17=
PLAYORDER=
